:SAMPLES-PER-SECOND 30
:FULLY-SPECIFIED
:DEGREES
98
root  34.83985841 36.58300986 -14.31141651 10.24936676 -3.170184612 3.348545551
lowerback  -8.859470367 0.3955100179 -0.1677405983
upperback  -3.900350094 1.089969993 -4.088729858
thorax  1.000180006 0.7223169804 -4.034130096
lowerneck  -11.71520042 -8.028400421 -4.953390121
upperneck  11.73729992 -10.96360016 7.591350079
head  6.180699825 -4.904970169 2.200079918
lclavicle  0 -4.497500157e-015 -2.743230041e-014
lhumerus  -48.41839981 31.21120071 61.58549881
lradius  -0.04702615738 -6.507048965e-006 28.9679985
lwrist  3.192251654e-007 -3.790274832e-007 -29.92070007
lhand  -4.421331342e-031 -36.9980011 -10.61380005
lfingers  90 7.125020027 -90
lthumb  94.84887814 -25.44722039 101.1682619
rclavicle  0 -4.497500157e-015 -2.743230041e-014
rhumerus  28.05590057 -20.22229958 -45.79119873
rradius  -5.16745672e-007 2.214343908e-008 77.19059753
rwrist  0.0006954420824 -0.004670973402 -174.5050049
rhand  -1.770404001e-031 4.238279819 -6.695139885
rfingers  -90 -7.125020027 -90
rthumb  -84.68448373 -9.24609588 -59.92666512
rfemur  -12.05293751 15.22017956 12.73413467
rtibia  -0.3146776855 -0.829213202 18.79174614
rfoot  0.852422595 -21.19772911 -36.69307327
rtoes  4.174742371 19.57690822 -102.2893462
lfemur  -6.496242046 -16.05848694 -21.07292938
ltibia  5.079737186 0.388335526 10.3559351
lfoot  0.5002831221 -23.88628197 35.3920784
ltoes  -8.468054107 -18.18570479 -115.5026884
99
root  34.84237851 36.58211175 -14.30966685 10.23381424 -3.093832493 3.366544008
lowerback  -8.873029709 0.4064019918 -0.1473748386
upperback  -3.921240091 1.106940031 -4.108640194
thorax  0.9877920151 0.7319530249 -4.064949989
lowerneck  -11.6814003 -8.06385994 -4.951819897
upperneck  11.72780037 -11.01580143 7.622719765
head  6.177189827 -4.927820206 2.205569983
lclavicle  0 -4.497500157e-015 -2.743230041e-014
lhumerus  -48.47869873 31.23480034 61.48799896
lradius  -0.04911721125 -6.507048965e-006 28.92980003
lwrist  3.192251654e-007 -3.790274832e-007 -30.05380058
lhand  -0 -37.04859924 -10.65470028
lfingers  90 7.125020027 -90
lthumb  94.88130163 -25.48556652 101.2260135
rclavicle  0 -4.497500157e-015 -2.743230041e-014
rhumerus  29.30190468 -20.40400124 -45.83499908
rradius  -5.16745672e-007 2.214343908e-008 75.92220306
rwrist  0.0006954420824 -0.004670973402 -174.3480072
rhand  -1.770559926e-031 4.305830002 -6.661159992
rfingers  -90 -7.125020027 -90
rthumb  -84.6509503 -9.279388127 -59.85798257
rfemur  -12.01982594 15.18184853 12.73607635
rtibia  -0.3211815059 -0.8289602995 18.78910255
rfoot  0.8381601572 -21.18625832 -36.74500656
rtoes  4.164597786 19.57898771 -102.2590719
lfemur  -6.452670574 -16.10177231 -21.11653137
ltibia  5.112283707 0.3655296266 10.31922913
lfoot  0.485214889 -23.83591461 35.32405472
ltoes  -8.454794545 -18.19170826 -115.4602099
100
root  34.84436095 36.58144493 -14.30859303 10.22368145 -3.036318779 3.384525537
lowerback  -8.880710602 0.4441820085 -0.08637147397
upperback  -3.939510107 1.155699968 -4.135550022
thorax  0.9778950214 0.7567639947 -4.123099804
lowerneck  -11.65810013 -7.866970062 -5.072760105
upperneck  11.71520042 -11.13899994 7.744009972
head  6.189239979 -5.188819885 2.229310036
lclavicle  0 -4.497500157e-015 -2.743230041e-014
lhumerus  -48.52180099 31.28000069 61.41659927
lradius  -0.05121629685 -6.507048965e-006 28.89109993
lwrist  3.192251654e-007 -3.790274832e-007 -30.28370094
lhand  -4.424510343e-031 -37.05260086 -10.66870022
lfingers  90 7.125020027 -90
lthumb  94.88621767 -25.49916291 101.2316364
rclavicle  0 -4.497500157e-015 -2.743230041e-014
rhumerus  30.42749977 -20.47590065 -45.74209976
rradius  -5.16745672e-007 2.214343908e-008 74.83100128
rwrist  0.0006954420824 -0.004670973402 -174.0359955
rhand  -1.770450897e-031 4.258709908 -6.59758997
rfingers  -90 -7.125020027 -90
rthumb  -84.63000122 -9.331673117 -59.89870954
rfemur  -12.01488209 15.16785526 12.73668766
rtibia  -0.3377697766 -0.8093515635 18.82315826
rfoot  0.8300884962 -21.14352417 -36.7595253
rtoes  4.195169672 19.57270478 -102.3503164
lfemur  -6.394211292 -16.12462616 -21.15675735
ltibia  5.165752411 0.3836947083 10.23957443
lfoot  0.5048334002 -23.85621834 35.34044647
ltoes  -8.496603157 -18.17273913 -115.5941945
101
root  34.8451269 36.57989502 -14.30711221 10.19496155 -2.949471712 3.410712957
lowerback  -8.910860062 0.477385968 -0.02529424243
upperback  -3.951270103 1.198719978 -4.158189774
thorax  0.9867290258 0.778801024 -4.177080154
lowerneck  -11.63169956 -7.92013979 -5.097539902
upperneck  11.68039989 -11.20670033 7.758190155
head  6.180490017 -5.222829819 2.231849909
lclavicle  0 -4.497500157e-015 -2.743230041e-014
lhumerus  -48.44860077 31.14619827 61.49129868
lradius  -0.05332124233 -6.507048965e-006 28.8789978
lwrist  3.192251654e-007 -3.790274832e-007 -30.26399994
lhand  -0 -37.03239822 -10.66709995
lfingers  90 7.125020027 -90
lthumb  94.87641191 -25.49836945 101.2098786
rclavicle  0 -4.497500157e-015 -2.743230041e-014
rhumerus  31.5007 -20.57320023 -45.55979919
rradius  -5.16745672e-007 2.214343908e-008 73.71109772
rwrist  0.0006954420824 -0.004670973402 -173.8430023
rhand  -1.770610053e-031 4.327320099 -6.290150166
rfingers  -90 -7.125020027 -90
rthumb  -84.45665499 -9.60138075 -59.80588321
rfemur  -11.98356247 15.17666435 12.73482227
rtibia  -0.3544306457 -0.7873217463 18.86218262
rfoot  0.8089390397 -21.10738754 -36.81851196
rtoes  4.193254943 19.5730997 -102.3446009
lfemur  -6.187434673 -16.13443756 -21.26332474
ltibia  5.326439857 0.409956336 9.958016396
lfoot  0.5201514959 -23.81271172 35.36658096
ltoes  -8.447187085 -18.19514739 -115.4358446
